<svg xmlns="http://www.w3.org/2000/svg" version="1.1" xmlns:xlink="http://www.w3.org/1999/xlink" xmlns:svgjs="http://svgjs.com/svgjs" width="1024" height="1024"><svg xmlns="http://www.w3.org/2000/svg" width="1024" height="1024"><path d="M246.322 773.6c-38.34-4.995-65.478-19.697-79.954-43.316-2.074-3.384-3.898-5.25-5.132-5.25-1.825 0-1.914.98-1.914 21v21h-50v-144h50l.027 16.25c.047 28.14 2.24 42.228 8.613 55.349 10.33 21.264 30.882 34.73 62.434 40.907 13.042 2.553 39.634 3.056 56.705 1.073 30.986-3.6 48.468-10.43 63.931-24.976 12.54-11.796 20.386-25.868 24.508-43.955 3.055-13.4 3.023-36.672-.067-49.148-6.402-25.853-22.877-43.423-52.942-56.463-11.984-5.197-24.426-9.072-48.382-15.067-35.982-9.004-53.937-15.018-74.546-24.97-49.597-23.948-73.718-54.102-80.354-100.45-1.37-9.562-1.31-33.358.106-42.55 4.07-26.423 15.25-48.58 33.842-67.074 27.718-27.572 68.634-41.97 119.087-41.907 47.483.06 80.133 13.398 97.253 39.73 2.582 3.972 4.742 6.25 5.924 6.25 1.75 0 1.861-1.14 1.861-19v-19h50v136h-49.795l-.46-24.25c-.508-26.697-1.499-32.376-7.849-44.954-12.928-25.611-48.316-38.824-100.396-37.485-37.692.969-57.157 7.916-74.835 26.708-13.693 14.555-19.793 30.97-19.873 53.482-.051 14.19 1.059 21.911 4.695 32.659 7.971 23.56 28.418 40.891 63.533 53.851 4.664 1.722 20.405 6.265 34.98 10.096 44.404 11.672 53.748 14.787 74.726 24.905 53.71 25.905 78.52 60.558 80.975 113.1 1.992 42.657-12.324 82.563-39.292 109.521-17.885 17.879-43.392 31.671-70.189 37.953-19.361 4.54-57.75 6.518-77.22 3.982zm430.965-8.816c-.545-1.238-24.785-74.475-53.866-162.75-29.08-88.275-62.626-190.088-74.545-226.25l-21.671-65.75H490.322v-32h164v32h-31.5c-17.325 0-31.5.272-31.5.604 0 .332 16.632 50.845 36.96 112.25s48.867 150.273 63.421 197.484c14.554 47.21 26.73 86.106 27.057 86.433.327.328 1.097.094 1.71-.519.612-.613 12.783-38.158 27.046-83.433 14.262-45.276 42.12-133.394 61.906-195.82 19.786-62.424 36.213-114.287 36.505-115.25.497-1.64-1.438-1.75-31.038-1.75h-31.567v-32h142v32H888.439l-21.67 65.75c-11.92 36.163-45.465 137.976-74.546 226.25-29.08 88.276-53.32 161.513-53.866 162.75l-.992 2.25h-59.086z" style="fill:#000"></path></svg><style>@media (prefers-color-scheme: light) { :root { filter: none; } }
@media (prefers-color-scheme: dark) { :root { filter: invert(100%); } }
</style></svg>