<svg xmlns="http://www.w3.org/2000/svg" xml:space="preserve" viewBox="0 0 400 600"><path fill="#f0eeed" d="m111 337.1-.4-.1c-15.4 0-27.4 4.6-30.8 11.7l-9.7 23.6-.1.4a37.2 37.2 0 0 1-7.5 14.4l-.2.1a797 797 0 0 0-20.6 10.5h-.1l-15.1 6.8C7.7 414.1 1.3 416.8 1.3 416s2.3-2.3 5.7-3.8l15.5-7.6 18.1-8.3 15.1-7.6c7.9-4.5 6.4-1.9 17.4-29.1 8.3-20.8 13.2-23.8 37.8-24.9 4.9-.4 6.8-8.3 3-12.1-7.6-8.7-12.8-25.7-15.1-47.2-1.9-15.1-2.3-17.4-3.8-15.5-6.4 6-15.9-1.9-20.4-17.4-1.1-4.5-3.8-11.3-4.9-14.3v-.1c-6.4-14-5.3-26.4 2.3-34 4.2-4.2 4.5-4.5 3-7.2-2.6-4.5-1.9-41.6 1.1-48a74.8 74.8 0 0 1 32.5-34 82.5 82.5 0 0 0 12.8-6.8l.1-.1a31 31 0 0 1 8.6-3.7c1.9-.3 3.5-.9 4.2-1.5l.4-.7 1.4-6.1c3.4-14.7 6.4-18.1 20.4-24.6 17.4-7.6 19.6-7.9 35.9-6.8 13.9 1.5 17 2.3 25.6 7.5l.1.1a51 51 0 0 0 10.1 3.7h.1c12.5 1.9 29.8 14.7 29.8 21.9 0 3 1.5 6 7.9 14 4.5 5.3 5.7 8.7 3.8 10.2-.8.4-1.1.8 0 .8s6 7.9 6 10.2c0 .8 2.3 5.6 4.9 10.2v.1c6.8 13.6 7.1 25.7.7 56.6-1.5 6.8-1.9 8.3-.8 8.7 5.7 1.9 6.8 11.7 3.4 31.4-1.1 5.7-2.6 18.5-3.4 28.3v.1a116 116 0 0 1-23.4 70.9l-.1.1-6.8 11.3c-1.1 1.9-3.8 6-6.8 9.4-5.3 6.4-5.7 7.9-2.6 11.3 12.1 15.1 17 25.3 17.8 36.3.4 10.2-.8 9.1 28 21.5 22.3 9.4 23.4 10.2 31.4 17 4.5 4.2 12.8 11.3 18.5 15.5 21.9 17.4 27.2 29.8 29.1 68 1.3 26.4-.4 52.9-4.9 79-.4 0-1.1-.8-1.1-1.5l1.5-11.3c8.7-55.9-1.9-127.3-18.5-127.3-.8 0-18.9-15.1-21.9-18.1a61.1 61.1 0 0 0-26.4-15.8h-.1l-17.7-7.5c-18.1-7.9-19.3-9.1-20-18.9-.4-9.1-4.5-18.1-13.6-30.2-4.5-5.6-6.1-6.5-7-7.4-.8-.9-1.1-2.7-1-3.6s.7-1.6 1.1-2.2l.1-.1 4.9-6 7.5-9.3.1-.2c3.7-7.1 7.8-14 12.4-20.6l.1-.1 3.7-6.7a109.5 109.5 0 0 0 13.2-52.9v-.1c.1-.7.8-11.8 2.7-22.3 1.6-9 2.9-17.1 2.7-24.1-.1-5.4.6-11.9-4.3-11.7-3.3.1-.8-10.1.4-13.5v-.1c6-27.2 5.6-38.1-1.1-51.3a50.6 50.6 0 0 1-4.5-10.6c0-1.9-4.9-10.2-6-10.2-1.5 0-2.3-3.8-.8-4.9.8-.8 0-1.9-2.6-5.6l-.1-.1c-6.8-7.9-8.3-10.9-9-15.1C254 81.2 239 70.3 226.1 68h-.1c-3-.8-7.9-2.6-11.3-4.5-16.2-9.8-34-9.8-55.9 0-14.3 6.4-17.4 10.2-20.8 24.5l-1.5 6.4c0 .8-2.3 1.5-4.5 1.9-2.3.4-6 2.2-8.6 3.7l-.1.1a80 80 0 0 1-12.7 7.1l-.1.1a73.6 73.6 0 0 0-32.4 34c-2.6 6-3.8 41.6-1.1 43.8.8.8 1.1 2.3 1.1 3.8 0 1.1 1.1 2.6 3 3.8a6 6 0 0 1 1.8 1.3c1.3 1.2-.3 3.2-1.7 2.2l-.2-.2c-9.4-9.9-17.6 12.6-10.5 29.1l.1.1a95.5 95.5 0 0 1 5.6 15.8c4.9 16.2 12.5 23 18.1 16.2 3.4-4.2 4.2-1.9 6.4 16.2v.1c.8 17.7 11.3 46.9 16.4 49.5 1.5.7 1.2 5.9 1 8.6-.4 3.4-3.9 4.9-7.1 5.5z" style="fill:#f0eeed;fill-opacity:1"/></svg>